<svg width="263" height="23" viewBox="0 0 263 23" fill="none" xmlns="http://www.w3.org/2000/svg">
<g filter="url(#filter0_d_446_7564)">
<path d="M251.134 9.34927L245.634 0.246526H249.314L253.54 7.60269H251.174L255.401 0.246526H259L253.459 9.34927H251.134ZM250.75 14.7534V7.86981H253.925V14.7534H250.75Z" fill="#1E2A38"/>
<path d="M238.354 14.9796C237.316 14.9796 236.338 14.7878 235.422 14.4042C234.518 14.0207 233.73 13.4933 233.056 12.822C232.382 12.1371 231.849 11.3426 231.458 10.4385C231.081 9.52066 230.892 8.53436 230.892 7.47956C230.892 6.42477 231.087 5.44532 231.478 4.54121C231.869 3.6371 232.409 2.84943 233.096 2.17819C233.797 1.49326 234.613 0.965866 235.543 0.596003C236.473 0.212442 237.471 0.0206609 238.536 0.0206609C239.762 0.0206609 240.874 0.246688 241.872 0.698743C242.883 1.1508 243.719 1.77408 244.379 2.5686L242.216 4.76724C241.757 4.1645 241.218 3.71244 240.598 3.41107C239.978 3.1097 239.277 2.95902 238.495 2.95902C237.659 2.95902 236.911 3.1508 236.251 3.53436C235.59 3.90422 235.071 4.43162 234.694 5.11655C234.33 5.78778 234.148 6.57545 234.148 7.47956C234.148 8.38367 234.33 9.17819 234.694 9.86313C235.058 10.5481 235.556 11.0823 236.19 11.4659C236.823 11.8494 237.551 12.0412 238.374 12.0412C239.21 12.0412 239.917 11.8837 240.497 11.5686C241.09 11.2398 241.542 10.7741 241.852 10.1713C242.175 9.55491 242.337 8.80833 242.337 7.93162L244.44 9.36998L238.07 9.26723V6.53436H245.572V7.00696C245.572 8.74669 245.262 10.2124 244.642 11.4042C244.036 12.5823 243.186 13.4727 242.094 14.0755C241.016 14.6782 239.769 14.9796 238.354 14.9796Z" fill="#1E2A38"/>
<path d="M221.946 15C220.867 15 219.87 14.8082 218.953 14.4247C218.05 14.0411 217.254 13.5068 216.567 12.8219C215.879 12.137 215.347 11.3425 214.97 10.4384C214.592 9.52055 214.403 8.53425 214.403 7.47945C214.403 6.41096 214.592 5.42466 214.97 4.52055C215.347 3.61644 215.873 2.82877 216.547 2.15753C217.221 1.4726 218.009 0.945206 218.913 0.575343C219.829 0.191781 220.827 0 221.905 0C222.97 0 223.954 0.191781 224.858 0.575343C225.774 0.945206 226.57 1.4726 227.244 2.15753C227.931 2.82877 228.464 3.62329 228.841 4.5411C229.219 5.44521 229.407 6.43151 229.407 7.5C229.407 8.55479 229.219 9.5411 228.841 10.4589C228.464 11.363 227.938 12.1575 227.264 12.8425C226.59 13.5137 225.794 14.0411 224.878 14.4247C223.975 14.8082 222.997 15 221.946 15ZM221.905 12.0616C222.755 12.0616 223.496 11.8699 224.13 11.4863C224.777 11.1027 225.275 10.5685 225.626 9.88356C225.976 9.18493 226.152 8.38356 226.152 7.47945C226.152 6.79452 226.051 6.17808 225.848 5.63014C225.646 5.06849 225.356 4.58904 224.979 4.19178C224.601 3.78082 224.15 3.4726 223.624 3.26712C223.112 3.04795 222.539 2.93836 221.905 2.93836C221.056 2.93836 220.308 3.13014 219.661 3.5137C219.027 3.88356 218.535 4.41096 218.185 5.09589C217.834 5.76712 217.659 6.56164 217.659 7.47945C217.659 8.16438 217.76 8.78767 217.962 9.34932C218.164 9.91096 218.448 10.3973 218.811 10.8082C219.189 11.2055 219.641 11.5137 220.166 11.7329C220.692 11.9521 221.272 12.0616 221.905 12.0616Z" fill="#1E2A38"/>
<path d="M204.586 14.7534V0.246526H207.761V14.7534H204.586ZM207.033 14.7534V11.9178H214.09V14.7534H207.033Z" fill="#1E2A38"/>
<path d="M195.11 15C194.031 15 193.034 14.8082 192.117 14.4247C191.214 14.0411 190.418 13.5068 189.731 12.8219C189.043 12.137 188.511 11.3425 188.133 10.4384C187.756 9.52055 187.567 8.53425 187.567 7.47945C187.567 6.41096 187.756 5.42466 188.133 4.52055C188.511 3.61644 189.037 2.82877 189.711 2.15753C190.385 1.4726 191.173 0.945206 192.077 0.575343C192.993 0.191781 193.991 0 195.069 0C196.134 0 197.118 0.191781 198.022 0.575343C198.938 0.945206 199.734 1.4726 200.408 2.15753C201.095 2.82877 201.628 3.62329 202.005 4.5411C202.382 5.44521 202.571 6.43151 202.571 7.5C202.571 8.55479 202.382 9.5411 202.005 10.4589C201.628 11.363 201.102 12.1575 200.428 12.8425C199.754 13.5137 198.958 14.0411 198.042 14.4247C197.139 14.8082 196.161 15 195.11 15ZM195.069 12.0616C195.919 12.0616 196.66 11.8699 197.294 11.4863C197.941 11.1027 198.439 10.5685 198.79 9.88356C199.14 9.18493 199.316 8.38356 199.316 7.47945C199.316 6.79452 199.215 6.17808 199.012 5.63014C198.81 5.06849 198.52 4.58904 198.143 4.19178C197.765 3.78082 197.314 3.4726 196.788 3.26712C196.276 3.04795 195.703 2.93836 195.069 2.93836C194.22 2.93836 193.472 3.13014 192.825 3.5137C192.191 3.88356 191.699 4.41096 191.349 5.09589C190.998 5.76712 190.823 6.56164 190.823 7.47945C190.823 8.16438 190.924 8.78767 191.126 9.34932C191.328 9.91096 191.611 10.3973 191.975 10.8082C192.353 11.2055 192.805 11.5137 193.33 11.7329C193.856 11.9521 194.436 12.0616 195.069 12.0616Z" fill="#1E2A38"/>
<path d="M173.367 14.7534V0.246526H175.591L176.541 3.14379V14.7534H173.367ZM183.214 14.7534L174.802 3.80132L175.591 0.246526L184.003 11.1986L183.214 14.7534ZM183.214 14.7534L182.365 11.8561V0.246526H185.54V14.7534H183.214Z" fill="#1E2A38"/>
<path d="M158.596 14.7534V0.246526H161.771V14.7534H158.596ZM167.432 14.7534V0.246526H170.627V14.7534H167.432ZM160.497 8.69173V5.89721H168.484V8.69173H160.497Z" fill="#1E2A38"/>
<path d="M151.429 14.9796C150.364 14.9796 149.373 14.7946 148.456 14.4248C147.553 14.0412 146.758 13.507 146.07 12.822C145.396 12.1371 144.87 11.3426 144.493 10.4385C144.115 9.52066 143.927 8.53436 143.927 7.47956C143.927 6.42477 144.115 5.44532 144.493 4.54121C144.87 3.6234 145.396 2.82888 146.07 2.15765C146.744 1.48641 147.533 0.965866 148.436 0.596003C149.353 0.212442 150.343 0.0206609 151.408 0.0206609C152.541 0.0206609 153.545 0.205592 154.421 0.575454C155.311 0.945317 156.086 1.45217 156.747 2.096L154.623 4.27408C154.246 3.86313 153.788 3.54121 153.248 3.30833C152.723 3.07546 152.109 2.95902 151.408 2.95902C150.788 2.95902 150.215 3.06861 149.69 3.28778C149.177 3.49326 148.732 3.79463 148.355 4.19189C147.991 4.58915 147.701 5.06861 147.486 5.63025C147.283 6.19189 147.182 6.80833 147.182 7.47956C147.182 8.1645 147.283 8.78778 147.486 9.34943C147.701 9.91107 147.991 10.3905 148.355 10.7878C148.732 11.185 149.177 11.4933 149.69 11.7124C150.215 11.9316 150.788 12.0412 151.408 12.0412C152.136 12.0412 152.77 11.9248 153.309 11.6919C153.848 11.459 154.313 11.1371 154.704 10.7261L156.848 12.9042C156.16 13.5481 155.372 14.0549 154.482 14.4248C153.606 14.7946 152.588 14.9796 151.429 14.9796Z" fill="#1E2A38"/>
<path d="M132.471 14.7534V0.246526H135.645V14.7534H132.471ZM134.897 14.7534V11.9589H142.723V14.7534H134.897ZM134.897 8.69173V5.99995H142.015V8.69173H134.897ZM134.897 3.0205V0.246526H142.622V3.0205H134.897Z" fill="#1E2A38"/>
<path d="M123.054 14.7534V0.452005H126.229V14.7534H123.054ZM118.586 3.06159V0.246526H130.698V3.06159H118.586Z" fill="#1E2A38"/>
<path d="M104.292 14.7534V0.246526H107.467V14.7534H104.292ZM106.718 9.06159V6.28762H113.856V9.06159H106.718ZM106.718 3.0205V0.246526H114.18V3.0205H106.718Z" fill="#1E2A38"/>
<path d="M93.8039 8.77392V6.39036H96.8168C97.4504 6.39036 97.9357 6.22598 98.2727 5.89721C98.6232 5.56844 98.7985 5.12324 98.7985 4.56159C98.7985 4.04105 98.63 3.60954 98.293 3.26707C97.9559 2.92461 97.4706 2.75337 96.837 2.75337H93.8039V0.246526H97.201C98.1447 0.246526 98.9737 0.431457 99.6882 0.80132C100.403 1.15748 100.962 1.65748 101.367 2.30132C101.771 2.94516 101.973 3.68488 101.973 4.5205C101.973 5.36981 101.771 6.11639 101.367 6.76022C100.962 7.39036 100.396 7.88351 99.668 8.23968C98.94 8.59584 98.084 8.77392 97.0999 8.77392H93.8039ZM91.3774 14.7534V0.246526H94.5521V14.7534H91.3774ZM99.1422 14.7534L94.6936 8.5068L97.6054 7.70543L102.903 14.7534H99.1422Z" fill="#1E2A38"/>
<path d="M82.9222 14.9794C81.7494 14.9794 80.7114 14.726 79.8082 14.2191C78.9184 13.7123 78.2174 13.0136 77.7052 12.1232C77.2064 11.2191 76.957 10.1917 76.957 9.04105V0.246526H80.1519V9.22598C80.1519 9.80132 80.2732 10.3013 80.5159 10.726C80.7585 11.1506 81.0888 11.4794 81.5067 11.7123C81.9381 11.9315 82.4099 12.041 82.9222 12.041C83.4614 12.041 83.9332 11.9315 84.3376 11.7123C84.7421 11.4794 85.0589 11.1575 85.288 10.7465C85.5307 10.3219 85.652 9.82187 85.652 9.24652V0.246526H88.8469V9.06159C88.8469 10.2123 88.5975 11.2328 88.0987 12.1232C87.5999 13.0136 86.9057 13.7123 86.016 14.2191C85.1263 14.726 84.095 14.9794 82.9222 14.9794Z" fill="#1E2A38"/>
<path d="M67.842 14.7534V0.452005H71.0167V14.7534H67.842ZM63.3732 3.06159V0.246526H75.4856V3.06159H63.3732Z" fill="#1E2A38"/>
<path d="M50.0447 8.77392V6.39036H53.0576C53.6912 6.39036 54.1765 6.22598 54.5135 5.89721C54.864 5.56844 55.0393 5.12324 55.0393 4.56159C55.0393 4.04105 54.8708 3.60954 54.5338 3.26707C54.1968 2.92461 53.7115 2.75337 53.0779 2.75337H50.0447V0.246526H53.4418C54.3855 0.246526 55.2145 0.431457 55.929 0.80132C56.6435 1.15748 57.2029 1.65748 57.6073 2.30132C58.0118 2.94516 58.214 3.68488 58.214 4.5205C58.214 5.36981 58.0118 6.11639 57.6073 6.76022C57.2029 7.39036 56.6367 7.88351 55.9088 8.23968C55.1808 8.59584 54.3248 8.77392 53.3407 8.77392H50.0447ZM47.6182 14.7534V0.246526H50.7929V14.7534H47.6182ZM55.383 14.7534L50.9344 8.5068L53.8463 7.70543L59.1441 14.7534H55.383Z" fill="#1E2A38"/>
<path d="M31.9733 14.7534L37.6351 0.246526H40.5065L46.1077 14.7534H42.751L38.4642 2.71228H39.6168L35.2693 14.7534H31.9733ZM35.1884 12.1232V9.4931H42.9734V12.1232H35.1884Z" fill="#1E2A38"/>
<path d="M20.6044 14.7534V0.246526H23.7791V14.7534H20.6044ZM23.0309 14.7534V11.9589H30.8564V14.7534H23.0309ZM23.0309 8.69173V5.99995H30.1487V8.69173H23.0309ZM23.0309 3.0205V0.246526H30.7553V3.0205H23.0309Z" fill="#1E2A38"/>
<path d="M11.4615 14.9796C10.4235 14.9796 9.44617 14.7878 8.52949 14.4043C7.62629 14.0207 6.83767 13.4933 6.16364 12.8221C5.48961 12.1371 4.95712 11.3426 4.56619 10.4385C4.18873 9.52069 4 8.53439 4 7.47959C4 6.4248 4.19547 5.44535 4.58641 4.54124C4.97734 3.63713 5.51657 2.84946 6.20408 2.17822C6.90507 1.49329 7.72065 0.965896 8.65081 0.596033C9.58098 0.212472 10.5785 0.0206909 11.6435 0.0206909C12.8702 0.0206909 13.9824 0.246718 14.98 0.698773C15.991 1.15083 16.8268 1.77411 17.4874 2.56863L15.3237 4.76727C14.8654 4.16453 14.3262 3.71247 13.706 3.4111C13.0859 3.10973 12.3849 2.95905 11.6031 2.95905C10.7673 2.95905 10.0191 3.15083 9.35855 3.53439C8.698 3.90425 8.17899 4.43165 7.80153 5.11658C7.43756 5.78781 7.25557 6.57548 7.25557 7.47959C7.25557 8.3837 7.43756 9.17822 7.80153 9.86316C8.16551 10.5481 8.66429 11.0823 9.29788 11.4659C9.93147 11.8495 10.6594 12.0412 11.4817 12.0412C12.3175 12.0412 13.0253 11.8837 13.6049 11.5686C14.1981 11.2399 14.6497 10.7741 14.9597 10.1714C15.2833 9.55494 15.445 8.80836 15.445 7.93165L17.548 9.37001L11.1784 9.26726V6.53439H18.6804V7.00699C18.6804 8.74672 18.3703 10.2125 17.7502 11.4043C17.1436 12.5823 16.2943 13.4727 15.2024 14.0755C14.1239 14.6782 12.877 14.9796 11.4615 14.9796Z" fill="#1E2A38"/>
</g>
<defs>
<filter id="filter0_d_446_7564" x="0" y="0" width="263" height="23" filterUnits="userSpaceOnUse" color-interpolation-filters="sRGB">
<feFlood flood-opacity="0" result="BackgroundImageFix"/>
<feColorMatrix in="SourceAlpha" type="matrix" values="0 0 0 0 0 0 0 0 0 0 0 0 0 0 0 0 0 0 127 0" result="hardAlpha"/>
<feOffset dy="4"/>
<feGaussianBlur stdDeviation="2"/>
<feComposite in2="hardAlpha" operator="out"/>
<feColorMatrix type="matrix" values="0 0 0 0 0.541176 0 0 0 0 0.619608 0 0 0 0 0.8 0 0 0 0.1 0"/>
<feBlend mode="normal" in2="BackgroundImageFix" result="effect1_dropShadow_446_7564"/>
<feBlend mode="normal" in="SourceGraphic" in2="effect1_dropShadow_446_7564" result="shape"/>
</filter>
</defs>
</svg>
