<svg width="184" height="10" viewBox="0 0 184 10" fill="none" xmlns="http://www.w3.org/2000/svg">
<path d="M178.324 6.23284L174.355 0.164351H177.011L180.06 5.06846H178.353L181.403 0.164351H184L180.002 6.23284H178.324ZM178.047 9.83558V5.24654H180.338V9.83558H178.047Z" fill="#1E2A38"/>
<path d="M169.102 9.98638C168.353 9.98638 167.648 9.85852 166.986 9.60281C166.335 9.34711 165.766 8.99551 165.279 8.54802C164.793 8.0914 164.409 7.56172 164.127 6.95898C163.854 6.34711 163.718 5.68957 163.718 4.98638C163.718 4.28318 163.859 3.63021 164.141 3.02747C164.423 2.42473 164.812 1.89962 165.309 1.45213C165.814 0.995509 166.403 0.64391 167.074 0.397336C167.745 0.141628 168.465 0.0137739 169.233 0.0137739C170.119 0.0137739 170.921 0.164459 171.641 0.465829C172.37 0.767198 172.974 1.18272 173.45 1.7124L171.889 3.17816C171.558 2.77633 171.169 2.47496 170.722 2.27405C170.274 2.07313 169.768 1.97268 169.204 1.97268C168.601 1.97268 168.061 2.10053 167.585 2.35624C167.108 2.60281 166.734 2.95441 166.461 3.41103C166.199 3.85852 166.067 4.38364 166.067 4.98638C166.067 5.58912 166.199 6.1188 166.461 6.57542C166.724 7.03204 167.084 7.3882 167.541 7.64391C167.998 7.89962 168.523 8.02747 169.117 8.02747C169.72 8.02747 170.23 7.92245 170.649 7.7124C171.077 7.49323 171.403 7.18272 171.626 6.7809C171.86 6.36994 171.977 5.87222 171.977 5.28775L173.494 6.24665L168.898 6.17816V4.35624H174.311V4.67131C174.311 5.83113 174.087 6.80829 173.64 7.60281C173.202 8.3882 172.589 8.98181 171.801 9.38364C171.023 9.78546 170.124 9.98638 169.102 9.98638Z" fill="#1E2A38"/>
<path d="M157.263 10C156.485 10 155.765 9.87215 155.103 9.61644C154.452 9.36073 153.878 9.00457 153.382 8.54794C152.886 8.09132 152.501 7.56164 152.229 6.9589C151.957 6.34703 151.82 5.6895 151.82 4.9863C151.82 4.27397 151.957 3.61644 152.229 3.0137C152.501 2.41096 152.881 1.88585 153.367 1.43836C153.853 0.981735 154.422 0.630137 155.074 0.383562C155.736 0.127854 156.455 0 157.234 0C158.002 0 158.712 0.127854 159.364 0.383562C160.025 0.630137 160.599 0.981735 161.086 1.43836C161.582 1.88585 161.966 2.41553 162.238 3.0274C162.511 3.63014 162.647 4.28767 162.647 5C162.647 5.7032 162.511 6.36073 162.238 6.9726C161.966 7.57534 161.587 8.10502 161.1 8.56164C160.614 9.00913 160.04 9.36073 159.378 9.61644C158.727 9.87215 158.022 10 157.263 10ZM157.234 8.0411C157.846 8.0411 158.381 7.91324 158.839 7.65753C159.306 7.40183 159.665 7.04566 159.918 6.58904C160.171 6.12329 160.298 5.58904 160.298 4.9863C160.298 4.52968 160.225 4.11872 160.079 3.75342C159.933 3.379 159.724 3.05936 159.451 2.79452C159.179 2.52055 158.853 2.31507 158.474 2.17808C158.104 2.03196 157.691 1.9589 157.234 1.9589C156.621 1.9589 156.081 2.08676 155.614 2.34247C155.157 2.58904 154.802 2.94064 154.549 3.39726C154.296 3.84475 154.17 4.37443 154.17 4.9863C154.17 5.44292 154.243 5.85845 154.388 6.23288C154.534 6.60731 154.739 6.93151 155.001 7.20548C155.274 7.47032 155.599 7.6758 155.979 7.82192C156.358 7.96804 156.776 8.0411 157.234 8.0411Z" fill="#1E2A38"/>
<path d="M144.737 9.83558V0.164351H147.028V9.83558H144.737ZM146.502 9.83558V7.94517H151.595V9.83558H146.502Z" fill="#1E2A38"/>
<path d="M137.899 10C137.121 10 136.401 9.87215 135.739 9.61644C135.088 9.36073 134.514 9.00457 134.018 8.54794C133.522 8.09132 133.137 7.56164 132.865 6.9589C132.593 6.34703 132.456 5.6895 132.456 4.9863C132.456 4.27397 132.593 3.61644 132.865 3.0137C133.137 2.41096 133.517 1.88585 134.003 1.43836C134.489 0.981735 135.058 0.630137 135.71 0.383562C136.372 0.127854 137.091 0 137.87 0C138.638 0 139.348 0.127854 140 0.383562C140.661 0.630137 141.235 0.981735 141.722 1.43836C142.218 1.88585 142.602 2.41553 142.874 3.0274C143.147 3.63014 143.283 4.28767 143.283 5C143.283 5.7032 143.147 6.36073 142.874 6.9726C142.602 7.57534 142.222 8.10502 141.736 8.56164C141.25 9.00913 140.676 9.36073 140.014 9.61644C139.363 9.87215 138.657 10 137.899 10ZM137.87 8.0411C138.482 8.0411 139.017 7.91324 139.475 7.65753C139.941 7.40183 140.301 7.04566 140.554 6.58904C140.807 6.12329 140.934 5.58904 140.934 4.9863C140.934 4.52968 140.861 4.11872 140.715 3.75342C140.569 3.379 140.36 3.05936 140.087 2.79452C139.815 2.52055 139.489 2.31507 139.11 2.17808C138.74 2.03196 138.327 1.9589 137.87 1.9589C137.257 1.9589 136.717 2.08676 136.25 2.34247C135.793 2.58904 135.438 2.94064 135.185 3.39726C134.932 3.84475 134.806 4.37443 134.806 4.9863C134.806 5.44292 134.878 5.85845 135.024 6.23288C135.17 6.60731 135.375 6.93151 135.637 7.20548C135.91 7.47032 136.235 7.6758 136.615 7.82192C136.994 7.96804 137.412 8.0411 137.87 8.0411Z" fill="#1E2A38"/>
<path d="M122.21 9.83558V0.164351H123.815L124.5 2.09586V9.83558H122.21ZM129.315 9.83558L123.246 2.53421L123.815 0.164351L129.884 7.46572L129.315 9.83558ZM129.315 9.83558L128.702 7.90408V0.164351H130.993V9.83558H129.315Z" fill="#1E2A38"/>
<path d="M111.552 9.83558V0.164351H113.842V9.83558H111.552ZM117.928 9.83558V0.164351H120.233V9.83558H117.928ZM112.923 5.79449V3.93147H118.686V5.79449H112.923Z" fill="#1E2A38"/>
<path d="M106.38 9.98638C105.611 9.98638 104.896 9.86309 104.235 9.61651C103.583 9.36081 103.009 9.00464 102.513 8.54802C102.027 8.0914 101.648 7.56172 101.375 6.95898C101.103 6.34711 100.967 5.68957 100.967 4.98638C100.967 4.28318 101.103 3.63021 101.375 3.02747C101.648 2.4156 102.027 1.88592 102.513 1.43843C103 0.990942 103.569 0.64391 104.22 0.397336C104.882 0.141628 105.597 0.0137739 106.365 0.0137739C107.182 0.0137739 107.907 0.137061 108.539 0.383636C109.181 0.630212 109.741 0.968111 110.217 1.39733L108.685 2.84939C108.413 2.57542 108.082 2.36081 107.693 2.20555C107.314 2.0503 106.871 1.97268 106.365 1.97268C105.918 1.97268 105.504 2.04574 105.125 2.19186C104.755 2.32884 104.434 2.52976 104.162 2.7946C103.899 3.05944 103.69 3.37907 103.535 3.7535C103.389 4.12793 103.316 4.53889 103.316 4.98638C103.316 5.443 103.389 5.85852 103.535 6.23295C103.69 6.60738 103.899 6.92701 104.162 7.19185C104.434 7.4567 104.755 7.66217 105.125 7.80829C105.504 7.95441 105.918 8.02747 106.365 8.02747C106.891 8.02747 107.348 7.94985 107.737 7.7946C108.126 7.63934 108.461 7.42473 108.744 7.15076L110.29 8.60281C109.794 9.03204 109.225 9.36994 108.583 9.61651C107.951 9.86309 107.216 9.98638 106.38 9.98638Z" fill="#1E2A38"/>
<path d="M92.7004 9.83558V0.164351H94.9912V9.83558H92.7004ZM94.4513 9.83558V7.97257H100.098V9.83558H94.4513ZM94.4513 5.79449V3.99997H99.5873V5.79449H94.4513ZM94.4513 2.01366V0.164351H100.025V2.01366H94.4513Z" fill="#1E2A38"/>
<path d="M85.9059 9.83558V0.301337H88.1967V9.83558H85.9059ZM82.6814 2.04106V0.164351H91.4213V2.04106H82.6814Z" fill="#1E2A38"/>
<path d="M72.3675 9.83558V0.164351H74.6582V9.83558H72.3675ZM74.1184 6.04106V4.19175H79.2689V6.04106H74.1184ZM74.1184 2.01366V0.164351H79.5024V2.01366H74.1184Z" fill="#1E2A38"/>
<path d="M64.7997 5.84928V4.26024H66.9737C67.4309 4.26024 67.7811 4.15065 68.0242 3.93147C68.2771 3.7123 68.4036 3.41549 68.4036 3.04106C68.4036 2.69403 68.282 2.40636 68.0388 2.17805C67.7957 1.94974 67.4455 1.83558 66.9883 1.83558H64.7997V0.164351H67.2509C67.9318 0.164351 68.5301 0.287638 69.0456 0.534213C69.5611 0.771656 69.9648 1.10499 70.2566 1.53421C70.5484 1.96344 70.6943 2.45659 70.6943 3.01367C70.6943 3.57988 70.5484 4.07759 70.2566 4.50682C69.9648 4.92691 69.5563 5.25567 69.031 5.49312C68.5057 5.73056 67.8881 5.84928 67.178 5.84928H64.7997ZM63.0488 9.83558V0.164351H65.3395V9.83558H63.0488ZM68.6516 9.83558L65.4417 5.6712L67.5427 5.13695L71.3655 9.83558H68.6516Z" fill="#1E2A38"/>
<path d="M56.9478 9.98627C56.1015 9.98627 55.3525 9.81732 54.7008 9.47942C54.0588 9.14152 53.553 8.67577 53.1833 8.08216C52.8234 7.47942 52.6435 6.79449 52.6435 6.02736V0.164351H54.9488V6.15065C54.9488 6.53421 55.0364 6.86755 55.2115 7.15065C55.3865 7.43376 55.6249 7.65293 55.9264 7.80819C56.2377 7.9543 56.5781 8.02736 56.9478 8.02736C57.3369 8.02736 57.6773 7.9543 57.9691 7.80819C58.2609 7.65293 58.4895 7.43832 58.6549 7.16435C58.83 6.88124 58.9175 6.54791 58.9175 6.16435V0.164351H61.2229V6.04106C61.2229 6.80819 61.0429 7.48855 60.683 8.08216C60.3231 8.67577 59.8222 9.14152 59.1802 9.47942C58.5382 9.81732 57.794 9.98627 56.9478 9.98627Z" fill="#1E2A38"/>
<path d="M46.0664 9.83558V0.301337H48.3572V9.83558H46.0664ZM42.8419 2.04106V0.164351H51.5817V2.04106H42.8419Z" fill="#1E2A38"/>
<path d="M33.2244 5.84928V4.26024H35.3985C35.8556 4.26024 36.2058 4.15065 36.449 3.93147C36.7019 3.7123 36.8283 3.41549 36.8283 3.04106C36.8283 2.69403 36.7068 2.40636 36.4636 2.17805C36.2204 1.94974 35.8702 1.83558 35.413 1.83558H33.2244V0.164351H35.6757C36.3566 0.164351 36.9548 0.287638 37.4703 0.534213C37.9859 0.771656 38.3896 1.10499 38.6814 1.53421C38.9732 1.96344 39.1191 2.45659 39.1191 3.01367C39.1191 3.57988 38.9732 4.07759 38.6814 4.50682C38.3896 4.92691 37.981 5.25567 37.4558 5.49312C36.9305 5.73056 36.3128 5.84928 35.6027 5.84928H33.2244ZM31.4735 9.83558V0.164351H33.7643V9.83558H31.4735ZM37.0764 9.83558L33.8664 5.6712L35.9675 5.13695L39.7903 9.83558H37.0764Z" fill="#1E2A38"/>
<path d="M20.1846 9.83558L24.27 0.164351H26.3419L30.3836 9.83558H27.9615L24.8683 1.80819H25.6999L22.5629 9.83558H20.1846ZM22.5046 8.08216V6.32873H28.122V8.08216H22.5046Z" fill="#1E2A38"/>
<path d="M11.9812 9.83558V0.164351H14.272V9.83558H11.9812ZM13.7321 9.83558V7.97257H19.3788V9.83558H13.7321ZM13.7321 5.79449V3.99997H18.8681V5.79449H13.7321ZM13.7321 2.01366V0.164351H19.3058V2.01366H13.7321Z" fill="#1E2A38"/>
<path d="M5.384 9.9864C4.63501 9.9864 3.92979 9.85854 3.26834 9.60283C2.61661 9.34713 2.04757 8.99553 1.56121 8.54804C1.07485 8.09142 0.690631 7.56174 0.408542 6.959C0.136181 6.34713 0 5.68959 0 4.9864C0 4.2832 0.141044 3.63023 0.423133 3.02749C0.705221 2.42475 1.09431 1.89964 1.5904 1.45215C2.09621 0.995529 2.6847 0.643931 3.35588 0.397356C4.02706 0.141648 4.74687 0.0137939 5.51532 0.0137939C6.40049 0.0137939 7.20299 0.164479 7.9228 0.465849C8.65234 0.767218 9.25542 1.18274 9.73206 1.71242L8.17084 3.17818C7.84012 2.77635 7.45103 2.47498 7.00358 2.27407C6.55613 2.07315 6.05031 1.9727 5.48614 1.9727C4.88305 1.9727 4.34319 2.10055 3.86656 2.35626C3.38993 2.60283 3.01543 2.95443 2.74307 3.41105C2.48043 3.85854 2.34912 4.38366 2.34912 4.9864C2.34912 5.58914 2.48043 6.11882 2.74307 6.57544C3.0057 7.03206 3.36561 7.38822 3.82279 7.64393C4.27996 7.89964 4.80523 8.02749 5.39859 8.02749C6.00168 8.02749 6.51235 7.92247 6.93062 7.71242C7.35862 7.49325 7.68448 7.18274 7.90821 6.78092C8.14166 6.36996 8.25839 5.87224 8.25839 5.28777L9.77583 6.24667L5.17973 6.17818V4.35626H10.5929V4.67133C10.5929 5.83115 10.3692 6.80831 9.92173 7.60283C9.48401 8.38822 8.8712 8.98183 8.0833 9.38366C7.30512 9.78548 6.40536 9.9864 5.384 9.9864Z" fill="#1E2A38"/>
</svg>
