<svg width="119" height="28" viewBox="0 0 119 28" fill="none" xmlns="http://www.w3.org/2000/svg">
<rect width="28" height="28" rx="8.6747" fill="#2B7F75"/>
<path fill-rule="evenodd" clip-rule="evenodd" d="M13.9992 6.51514C14.1769 6.51494 14.3501 6.57124 14.4937 6.67589C14.6373 6.78054 14.7439 6.92812 14.7982 7.09734L18.4702 18.5726L19.9073 14.0826C19.9613 13.9134 20.0676 13.7657 20.2111 13.6609C20.3545 13.556 20.5275 13.4994 20.7051 13.4993H22.102C22.3242 13.4993 22.5374 13.5876 22.6946 13.7448C22.8518 13.902 22.9401 14.1151 22.9401 14.3374C22.9401 14.5597 22.8518 14.7729 22.6946 14.9301C22.5374 15.0872 22.3242 15.1755 22.102 15.1755H21.3164L19.2681 21.5775C19.2137 21.7464 19.1072 21.8937 18.9638 21.9983C18.8205 22.1028 18.6476 22.1591 18.4702 22.1591C18.2928 22.1591 18.1199 22.1028 17.9765 21.9983C17.8331 21.8937 17.7266 21.7464 17.6723 21.5775L14.0059 10.1201L11.4469 18.2218C11.3941 18.3887 11.2903 18.5349 11.1502 18.6399C11.01 18.7448 10.8405 18.8033 10.6655 18.807C10.4904 18.8107 10.3186 18.7594 10.1742 18.6605C10.0297 18.5615 9.91988 18.4198 9.86008 18.2553L8.4476 14.371L8.36938 14.6034C8.31381 14.7702 8.20719 14.9153 8.0646 15.0182C7.92202 15.1211 7.75068 15.1765 7.57485 15.1766H5.89865C5.67637 15.1766 5.4632 15.0883 5.30602 14.9312C5.14885 14.774 5.06055 14.5608 5.06055 14.3385C5.06055 14.1163 5.14885 13.9031 5.30602 13.7459C5.4632 13.5887 5.67637 13.5004 5.89865 13.5004H6.97142L7.61732 11.5594C7.67207 11.3941 7.77697 11.2499 7.91744 11.1469C8.0579 11.044 8.22695 10.9873 8.40109 10.9849C8.57524 10.9824 8.74582 11.0343 8.88913 11.1332C9.03245 11.2322 9.14137 11.3733 9.20077 11.537L10.592 15.3644L13.2013 7.10181C13.2547 6.93194 13.3609 6.78351 13.5043 6.67802C13.6478 6.57253 13.8211 6.51548 13.9992 6.51514Z" fill="white"/>
<path d="M39.3572 22.7191L35 5.28088H38.7539L42.0386 19.8869H41.0331L44.4965 5.28088H48.0716L51.535 19.8869H50.5295L53.8142 5.28088H57.5681L53.2109 22.7191H49.1889L45.7031 8.6749H46.865L43.3792 22.7191H39.3572Z" fill="#1A1C1E"/>
<path d="M63.5778 23C62.2818 23 61.1571 22.7035 60.2037 22.1105C59.2503 21.502 58.513 20.6905 57.9916 19.6762C57.4702 18.6619 57.2095 17.5384 57.2095 16.3056C57.2095 15.026 57.4777 13.8869 58.0139 12.8882C58.5651 11.8895 59.3025 11.1014 60.2261 10.5241C61.1496 9.94668 62.1924 9.658 63.3543 9.658C64.3226 9.658 65.1791 9.82185 65.924 10.1495C66.6688 10.4616 67.2944 10.9064 67.8009 11.4837C68.3223 12.0611 68.717 12.7321 68.9852 13.4967C69.2533 14.2458 69.3874 15.065 69.3874 15.9545C69.3874 16.2042 69.3725 16.4538 69.3427 16.7035C69.3278 16.9376 69.2905 17.1404 69.231 17.3121H60.092V14.7373H67.3317L65.7452 15.9545C65.8942 15.2835 65.8867 14.6905 65.7228 14.1756C65.559 13.645 65.2685 13.2315 64.8514 12.935C64.4492 12.6229 63.9502 12.4668 63.3543 12.4668C62.7734 12.4668 62.2743 12.6151 61.8572 12.9116C61.4401 13.2081 61.1273 13.645 60.9187 14.2224C60.7102 14.7997 60.6283 15.502 60.673 16.329C60.6134 17.0468 60.6953 17.6788 60.9187 18.225C61.1422 18.7711 61.4848 19.2003 61.9466 19.5124C62.4084 19.8088 62.967 19.9571 63.6225 19.9571C64.2183 19.9571 64.7248 19.8322 65.1419 19.5826C65.5739 19.3329 65.9091 18.9896 66.1474 18.5527L68.8288 19.8869C68.5904 20.5111 68.2106 21.0572 67.6892 21.5254C67.1827 21.9935 66.5794 22.3602 65.8793 22.6255C65.1791 22.8752 64.412 23 63.5778 23Z" fill="#1A1C1E"/>
<path d="M78.9359 23C77.7591 23 76.6642 22.7737 75.6512 22.3212C74.6531 21.8687 73.7817 21.2445 73.0369 20.4486C72.307 19.6372 71.7334 18.6853 71.3163 17.593C70.8992 16.5007 70.6907 15.2991 70.6907 13.9883C70.6907 12.6931 70.8918 11.4994 71.294 10.407C71.7111 9.29909 72.2921 8.3472 73.0369 7.55137C73.7817 6.73992 74.6531 6.11573 75.6512 5.6788C76.6493 5.22627 77.7442 5 78.9359 5C80.1127 5 81.1629 5.21066 82.0865 5.63199C83.0249 6.05332 83.8145 6.60728 84.455 7.29389C85.0955 7.96489 85.5573 8.69831 85.8404 9.49415L83.4718 10.6645C83.1143 9.72822 82.5408 8.97139 81.7513 8.39402C80.9767 7.80104 80.0382 7.50455 78.9359 7.50455C77.8335 7.50455 76.8578 7.77763 76.0087 8.3238C75.1596 8.86996 74.4967 9.62679 74.02 10.5943C73.5583 11.5618 73.3274 12.6931 73.3274 13.9883C73.3274 15.2835 73.5583 16.4226 74.02 17.4057C74.4967 18.3732 75.1596 19.13 76.0087 19.6762C76.8578 20.2068 77.8335 20.472 78.9359 20.472C80.0382 20.472 80.9767 20.1834 81.7513 19.606C82.5408 19.0286 83.1143 18.2718 83.4718 17.3355L85.8404 18.5059C85.5573 19.2861 85.0955 20.0195 84.455 20.7061C83.8145 21.3927 83.0249 21.9467 82.0865 22.368C81.1629 22.7893 80.1127 23 78.9359 23Z" fill="#1A1C1E"/>
<path d="M91.2607 23C90.4414 23 89.7189 22.8518 89.0933 22.5553C88.4825 22.2432 88.0058 21.8218 87.6632 21.2913C87.3206 20.7451 87.1493 20.1053 87.1493 19.3719C87.1493 18.6853 87.2908 18.0689 87.5738 17.5228C87.8718 16.9766 88.3261 16.5163 88.9368 16.1417C89.5476 15.7672 90.3148 15.502 91.2383 15.3459L95.4391 14.6203V16.7035L91.7299 17.3823C91.0596 17.5072 90.568 17.7334 90.2552 18.0611C89.9424 18.3732 89.7859 18.7789 89.7859 19.2783C89.7859 19.762 89.9573 20.1599 90.2999 20.472C90.6574 20.7685 91.1117 20.9168 91.6629 20.9168C92.3481 20.9168 92.944 20.7607 93.4505 20.4486C93.9718 20.1365 94.374 19.723 94.6571 19.2081C94.9401 18.6775 95.0816 18.0923 95.0816 17.4525V14.199C95.0816 13.5748 94.8582 13.0676 94.4113 12.6775C93.9793 12.2718 93.3983 12.0689 92.6684 12.0689C91.9981 12.0689 91.4097 12.2562 90.9032 12.6307C90.4116 12.9896 90.0466 13.4577 89.8083 14.0351L87.7079 12.935C87.9313 12.3108 88.2963 11.7646 88.8028 11.2965C89.3093 10.8127 89.8977 10.4382 90.568 10.173C91.2532 9.90767 91.9757 9.77503 92.7354 9.77503C93.6888 9.77503 94.5305 9.96229 95.2604 10.3368C96.0052 10.7113 96.5787 11.2341 96.9809 11.9051C97.398 12.5605 97.6066 13.3251 97.6066 14.199V22.7191H95.1933V20.4252L95.7073 20.4954C95.4242 21.0104 95.0593 21.4551 94.6124 21.8296C94.1804 22.2042 93.6814 22.4928 93.1153 22.6957C92.5641 22.8986 91.9459 23 91.2607 23Z" fill="#1A1C1E"/>
<path d="M100.112 22.7191V10.0559H102.525V12.6073L102.302 12.2328C102.57 11.4057 103.002 10.8127 103.598 10.4538C104.194 10.0793 104.909 9.89207 105.743 9.89207H106.48V12.303H105.43C104.596 12.303 103.918 12.5761 103.397 13.1222C102.89 13.6528 102.637 14.4174 102.637 15.4161V22.7191H100.112Z" fill="#1A1C1E"/>
<path d="M113.436 23C112.23 23 111.157 22.7113 110.219 22.1339C109.295 21.541 108.573 20.7451 108.051 19.7464C107.53 18.7321 107.269 17.6008 107.269 16.3524C107.269 15.0728 107.53 13.9415 108.051 12.9584C108.587 11.9753 109.302 11.2029 110.196 10.6411C111.09 10.0637 112.103 9.77503 113.235 9.77503C114.144 9.77503 114.956 9.93888 115.671 10.2666C116.386 10.5943 116.989 11.0468 117.481 11.6242C117.972 12.186 118.345 12.8335 118.598 13.567C118.866 14.3004 119 15.0806 119 15.9077C119 16.1105 118.993 16.3212 118.978 16.5397C118.963 16.7581 118.933 16.961 118.888 17.1482H109.258V15.0416H117.458L116.252 16.0013C116.401 15.2367 116.348 14.5579 116.095 13.9649C115.857 13.3563 115.484 12.8804 114.978 12.5371C114.486 12.1782 113.905 11.9987 113.235 11.9987C112.565 11.9987 111.969 12.1782 111.448 12.5371C110.926 12.8804 110.524 13.3797 110.241 14.0351C109.958 14.6749 109.846 15.4551 109.906 16.3758C109.831 17.2341 109.943 17.9831 110.241 18.6229C110.554 19.2627 110.986 19.762 111.537 20.1209C112.103 20.4798 112.743 20.6593 113.459 20.6593C114.188 20.6593 114.807 20.4876 115.313 20.1443C115.835 19.801 116.244 19.3563 116.542 18.8101L118.598 19.8635C118.359 20.4564 117.987 20.9948 117.481 21.4785C116.989 21.9467 116.393 22.3212 115.693 22.6021C115.008 22.8674 114.255 23 113.436 23Z" fill="#1A1C1E"/>
</svg>
